<svg width="304" height="160" viewBox="0 0 304 160" fill="none" xmlns="http://www.w3.org/2000/svg">
<g clip-path="url(#clip0_1584_27872)">
<g opacity="0.8">
<mask id="mask0_1584_27872" style="mask-type:alpha" maskUnits="userSpaceOnUse" x="243" y="38" width="95" height="163">
<rect x="243.114" y="38.6567" width="94.0239" height="161.965" fill="#C4C4C4"/>
</mask>
<g mask="url(#mask0_1584_27872)">
<path d="M-39.3932 134.326V145.457H-22.1908V90.8655H-4.98843V135.998H12.1788V165.793H29.3813V148.968H46.5836V175.015H63.7861V127.48H80.9885V90.8655H98.1997V76.0383H115.393V61.0792H132.569V38.2006H149.772V80.0333H166.974V53.5997H184.177V90.8655H201.379V104.637H218.581V138.33H235.784V189.534H252.986V140.327H270.153V123.556H287.356V108.596H304.558V130.067H321.761V148.221H338.963V200.621H321.761H304.558H287.356H270.189H270.153H252.986H235.784H218.581H201.379H184.177H166.974H149.772H132.596H132.569H115.393H98.1997H80.9885H63.7861H46.5836H29.3813H12.1788H-4.98843H-5.02356H-22.1908H-39.3932H-56.5957V134.326H-39.3932Z" fill="#5599E9"/>
</g>
<mask id="mask1_1584_27872" style="mask-type:alpha" maskUnits="userSpaceOnUse" x="14" y="42" width="258" height="163">
<rect x="14.5784" y="42.764" width="256.748" height="161.965" fill="#C4C4C4"/>
</mask>
<g mask="url(#mask1_1584_27872)">
<path d="M-20.6872 138.434V149.565H-3.48477V94.9729H13.7176V140.105H30.8849V169.901H48.0873V153.076H65.2897V179.122H82.4921V131.588H99.6945V94.9729H116.906V80.1458H134.099V65.1866H151.275V42.308H168.478V84.1407H185.68V57.7071H202.883V94.9729H220.085V108.744H237.287V142.437H254.49V193.642H271.692V144.435H288.86V127.663H306.062V112.704H323.264V134.175H340.467V152.328H357.669V204.729H340.467H323.264H306.062H288.895H288.86H271.692H254.49H237.287H220.085H202.883H185.68H168.478H151.302H151.275H134.099H116.906H99.6945H82.4921H65.2897H48.0873H30.8849H13.7176H13.6825H-3.48477H-20.6872H-37.8896V138.434H-20.6872Z" fill="#5599E9"/>
</g>
<g clip-path="url(#clip1_1584_27872)">
<path opacity="0.7" d="M260.523 101.338C260.523 101.338 261.652 98.4051 264.35 98.7313C264.35 98.7313 268.27 93.8504 272.446 98.079C272.446 98.079 276.888 97.0296 280.179 98.9886C282.372 100.295 283.088 101.664 283.088 101.664L260.523 101.338Z" fill="#D4EDFF"/>
<path d="M164.77 207.232H175.177L175.177 84.4723H164.77V207.232Z" fill="#1B3B96"/>
<path d="M164.77 84.4779H175.177V78.8114H164.77V84.4779Z" fill="#07267C"/>
<path d="M142.875 158.534H175.177V156.942H142.875V158.534Z" fill="#008BDC"/>
<g opacity="0.28">
<path opacity="0.28" d="M130.895 135.192H128.03V205.663H130.895V135.192Z" fill="#008BDC"/>
</g>
<g opacity="0.28">
<path opacity="0.28" d="M137.967 135.192H135.102V205.662H137.967V135.192Z" fill="#008BDC"/>
</g>
<path d="M161.768 153.789H125.442V158.178H161.768V153.789Z" fill="#008BDC"/>
<g opacity="0.22">
<path opacity="0.22" d="M161.767 158.178H125.441V159.624H161.767V158.178Z" fill="#008BDC"/>
</g>
<path d="M86.2079 202.898H115.143L115.143 110.832H86.2079L86.2079 202.898Z" fill="#5495EF"/>
<path d="M215.134 203.569H248.512V98.2156H215.134V203.569Z" fill="#5599E9"/>
<path d="M45.0984 102.66V97.5828H46.9338V94.8032H63.4851V97.5828H65.3205V102.66H68.9261L69.7832 206.582H41.4965V102.66H45.0984Z" fill="#5599E9"/>
<path d="M240.598 88.5542H222.254V203.57H240.598V88.5542Z" fill="#5599E9"/>
<path d="M113.645 95.06V86.9032H116.81V78.7509H121.678V70.5941H122.658V78.7509H127.527V86.9032H130.691V95.06H134.403V203.569H109.933V95.06H113.645Z" fill="#1D71D2"/>
<path d="M44.69 203.704H65.0598L65.0598 139.259H44.69L44.69 203.704Z" fill="#125EC8"/>
<g opacity="0.6">
<path d="M57.0502 189.313H63.0502L63.0502 143.514H57.0502L57.0502 189.313Z" fill="#A4CCFF"/>
<path d="M47.0502 189.313H53.0502L53.0502 143.514H47.0502L47.0502 189.313Z" fill="#A4CCFF"/>
</g>
<path d="M255.326 118.249V109.88H270.521V118.249H274.329V204.757H251.517V118.249H255.326Z" fill="#3480D9"/>
<g opacity="0.6">
<path d="M260.648 179.396H264.648V138.448H260.648V179.396Z" fill="#F2F4FF"/>
<path d="M267.648 179.396H271.648V138.448H267.648V179.396Z" fill="#F2F4FF"/>
<path d="M253.648 179.396H257.648V138.448H253.648V179.396Z" fill="#F2F4FF"/>
</g>
<path d="M236.656 201.57L251.506 201.292L251.524 157.735L245.437 153.838L236.656 158.379V201.57Z" fill="#0E42C4"/>
<rect x="113.125" y="101.161" width="2.73743" height="99.0038" fill="#C2D1FA"/>
<rect x="118.143" y="101.161" width="2.73743" height="99.0038" fill="#C2D1FA"/>
<rect x="123.163" y="101.161" width="2.73743" height="99.0038" fill="#C2D1FA"/>
<rect x="128.18" y="101.161" width="2.73743" height="99.0038" fill="#C2D1FA"/>
<g clip-path="url(#clip2_1584_27872)">
<path d="M242.42 115.622H207.125V200.667H242.42V115.622Z" fill="#125EC8"/>
<path d="M220.412 141.679H214.412V180.003H220.412V141.679Z" fill="#A4CCFF"/>
<path d="M244.631 131.525H204.828V139.091H244.631V131.525Z" fill="#054398"/>
<path d="M224.769 106.943H217.837V115.622H224.769V106.943Z" fill="#125EC8"/>
<path d="M231.711 106.943H224.774V115.622H231.711V106.943Z" fill="#1A539F"/>
<path d="M226.679 105.268H222.861V106.943H226.679V105.268Z" fill="#1A539F"/>
<path d="M244.631 131.525H204.828V133.647H244.631V131.525Z" fill="#417ED3"/>
<path d="M229.533 141.679H223.533V180.003H229.533V141.679Z" fill="#A4CCFF"/>
<path d="M238.658 141.679H232.658V180.003H238.658V141.679Z" fill="#A4CCFF"/>
<path d="M219.705 119.008H213.705V128.431H219.705V119.008Z" fill="#A4CCFF"/>
<path d="M228.953 119.008H222.953V128.431H228.953V119.008Z" fill="#A4CCFF"/>
<path d="M238.197 119.008H232.197V128.431H238.197V119.008Z" fill="#A4CCFF"/>
</g>
<path opacity="0.7" d="M37.4587 61.4725C37.4587 61.4725 39.8581 56.342 45.5925 56.9121C45.5925 56.9121 53.9158 48.3613 62.813 55.772C62.813 55.772 72.2498 53.9421 79.2356 57.3567C83.8909 59.6369 85.435 62.0197 85.435 62.0197L37.4587 61.4725Z" fill="#D4EDFF"/>
<g clip-path="url(#clip3_1584_27872)">
<path d="M64.7654 204.728H105.827V84.9446H91.1254L64.7654 75.156V204.728Z" fill="#297BEB"/>
<path d="M105.824 84.9447H91.1241V204.728H105.824V84.9447Z" fill="#297BEB"/>
<path d="M105.828 154.287H92.4484V158.452H105.828V154.287Z" fill="#C0D8F8"/>
<path d="M98.9998 91.8148H70.9197V95.9796H98.9998V91.8148Z" fill="#C0D8F8"/>
<path d="M98.9998 100.607H70.9197V104.772H98.9998V100.607Z" fill="#C0D8F8"/>
<path d="M98.9998 109.399H70.9197V114.027H98.9998V109.399Z" fill="#C0D8F8"/>
<path d="M98.9998 118.655H70.9197V123.282H98.9998V118.655Z" fill="#C0D8F8"/>
<path d="M98.9998 127.91H70.9197V132.075H98.9998V127.91Z" fill="#C0D8F8"/>
<path d="M98.9998 136.703H70.9197V140.868H98.9998V136.703Z" fill="#C0D8F8"/>
<path d="M98.9998 145.495H70.9197V149.659H98.9998V145.495Z" fill="#C0D8F8"/>
<path d="M98.9998 154.287H70.9197V158.452H98.9998V154.287Z" fill="#C0D8F8"/>
</g>
<path d="M160.054 210.48H211.77L211.77 55.8558H160.054L160.054 210.48Z" fill="#1D6DCB"/>
<rect x="166.843" y="66.8252" width="38.1336" height="3.65665" fill="#8CC4FE"/>
<rect x="166.843" y="76.751" width="38.1336" height="3.65665" fill="#8CC4FE"/>
<rect x="166.843" y="87.1979" width="38.1336" height="3.65665" fill="#8CC4FE"/>
<rect x="167.366" y="48.9801" width="37.0888" height="8.35805" fill="#3682DC"/>
<rect x="156.918" y="53.1593" width="57.9839" height="6.26853" fill="#8CC4FE"/>
<rect x="166.843" y="97.1237" width="38.1336" height="3.65665" fill="#8CC4FE"/>
<rect x="166.843" y="107.048" width="38.1336" height="3.65665" fill="#8CC4FE"/>
<rect x="166.843" y="116.974" width="38.1336" height="3.65665" fill="#8CC4FE"/>
<rect x="171.526" y="127.623" width="28.743" height="3.64991" fill="#8CC4FE"/>
</g>
<path opacity="0.7" d="M244.666 57.9692C244.666 57.9692 246.755 52.9551 251.751 53.5126C251.751 53.5126 259.007 45.1684 266.737 52.3975C266.737 52.3975 274.96 50.6035 281.052 53.9526C285.112 56.1866 286.437 58.5268 286.437 58.5268L244.666 57.9692Z" fill="#D4EDFF"/>
<mask id="mask2_1584_27872" style="mask-type:alpha" maskUnits="userSpaceOnUse" x="-38" y="38" width="53" height="163">
<rect x="-37.433" y="38.1705" width="52.0112" height="162.421" fill="#C4C4C4"/>
</mask>
<g mask="url(#mask2_1584_27872)">
<path d="M-20.2304 134.296V145.427H-3.02798V90.8355H14.1744V135.968H31.3416V165.763H48.5441V148.938H65.7465V174.985H82.9489V127.45H100.151V90.8355H117.363V76.0083H134.556V61.0492H151.732V38.1705H168.935V80.0033H186.137V53.5696H203.339V90.8355H220.542V104.607H237.744V138.3H254.947V189.504H272.149V140.297H289.316V123.526H306.519V108.566H323.721V130.037H340.924V148.19H358.126V200.591H340.924H323.721H306.519H289.351H289.316H272.149H254.947H237.744H220.542H203.339H186.137H168.935H151.759H151.732H134.556H117.363H100.151H82.9489H65.7465H48.5441H31.3416H14.1744H14.1393H-3.02798H-20.2304H-37.4328V134.296H-20.2304Z" fill="#77ADED"/>
</g>
<path d="M17.9117 129.937V124.314H22.0396V118.693H28.3898V113.069H29.6679V118.693H36.0181V124.314H40.146V129.937H44.9878V204.748H13.0699V129.937H17.9117Z" fill="#1F6CD5"/>
<g opacity="0.6">
<path d="M31.3432 149.108H41.4143V138.195H31.3432V149.108Z" fill="#F2F4FF"/>
<path d="M18.1638 149.149H28.2349V138.236H18.1638V149.149Z" fill="#F2F4FF"/>
<path d="M31.3432 163.355H41.4143V152.442H31.3432V163.355Z" fill="#F2F4FF"/>
<path d="M18.1638 163.396H28.2349V152.483H18.1638V163.396Z" fill="#F2F4FF"/>
<path d="M41.5936 157.889V157.21H17.825V157.889H41.5936Z" fill="#796CE1"/>
<path d="M41.5936 143.628V142.949H17.825V143.628H41.5936Z" fill="#4C89DD"/>
</g>
<path d="M138.69 104.584V97.0548H141.787V89.5294H146.55V82H147.509V89.5294H152.272V97.0548H155.368V104.584H159V204.748H135.059V104.584H138.69Z" fill="#1F6CD5"/>
<g opacity="0.6">
<path d="M148.767 121.191H156.321V108.641H148.767V121.191Z" fill="#F2F4FF"/>
<path d="M138.882 121.238H146.436V108.688H138.882V121.238Z" fill="#F2F4FF"/>
<path d="M148.767 153.968H156.321V141.418H148.767V153.968Z" fill="#F2F4FF"/>
<path d="M148.767 171.952H156.321V159.402H148.767V171.952Z" fill="#F2F4FF"/>
<path d="M138.882 154.013H146.436V141.463H138.882V154.013Z" fill="#F2F4FF"/>
<path d="M138.882 172H146.436V159.45H138.882V172Z" fill="#F2F4FF"/>
<path d="M148.767 137.575H156.321V125.025H148.767V137.575Z" fill="#F2F4FF"/>
<path d="M138.882 137.621H146.436V125.071H138.882V137.621Z" fill="#F2F4FF"/>
<path d="M156.456 147.689V146.908H138.627V147.689H156.456Z" fill="#4C89DD"/>
<path d="M156.456 131.289V130.508H138.627V131.289H156.456Z" fill="#4C89DD"/>
<path d="M156.456 114.889V114.108H138.627V114.889H156.456Z" fill="#4C89DD"/>
</g>
</g>
</g>
<defs>
<clipPath id="clip0_1584_27872">
<rect width="304" height="160" fill="white"/>
</clipPath>
<clipPath id="clip1_1584_27872">
<rect width="282.868" height="204.851" fill="white" transform="translate(26.4412 -0.123047)"/>
</clipPath>
<clipPath id="clip2_1584_27872">
<rect width="39.8029" height="95.4542" fill="white" transform="translate(204.828 105.268)"/>
</clipPath>
<clipPath id="clip3_1584_27872">
<rect width="41.0615" height="129.572" fill="white" transform="translate(64.7654 75.1561)"/>
</clipPath>
</defs>
</svg>
