<svg width="288" height="120" viewBox="0 0 288 120" fill="none" xmlns="http://www.w3.org/2000/svg">
<g clip-path="url(#clip0_2997_41202)">
<mask id="mask0_2997_41202" style="mask-type:alpha" maskUnits="userSpaceOnUse" x="150" y="18" width="134" height="98">
<path fill-rule="evenodd" clip-rule="evenodd" d="M225.417 115.862C257.492 115.862 283.494 93.9752 283.494 66.9767C283.494 39.9782 257.492 18.0915 225.417 18.0915C194.39 18.0915 169.046 38.5715 167.423 64.3476C157.154 68.2839 150 77.1055 150 87.3569C150 101.274 163.186 112.557 179.451 112.557C185.213 112.557 190.588 111.141 195.127 108.695C203.946 113.241 214.318 115.862 225.417 115.862Z" fill="#FBFFC7"/>
</mask>
<g mask="url(#mask0_2997_41202)">
<path fill-rule="evenodd" clip-rule="evenodd" d="M225.417 115.862C257.492 115.862 283.494 93.9752 283.494 66.9767C283.494 39.9782 257.492 18.0915 225.417 18.0915C194.39 18.0915 169.046 38.5715 167.423 64.3476C157.154 68.2839 150 77.1055 150 87.3569C150 101.274 163.186 112.557 179.451 112.557C185.213 112.557 190.588 111.141 195.127 108.695C203.946 113.241 214.318 115.862 225.417 115.862Z" fill="#EFFAFF"/>
<g clip-path="url(#clip1_2997_41202)">
<path d="M207.531 113.241L203.074 122.628C202.946 122.897 202.72 123.107 202.442 123.214C202.164 123.321 201.856 123.317 201.581 123.203L200.717 122.845L193.243 119.746C192.988 119.641 192.783 119.44 192.671 119.187C192.559 118.934 192.548 118.648 192.642 118.387C194.388 113.529 202.186 91.9438 203.557 90.1142C203.847 89.7217 204.163 89.3489 204.502 88.9984C205.431 88.0521 205.913 88.0521 205.913 88.0521L207.531 113.241Z" fill="#1C6AB0"/>
<path d="M207.531 113.24L203.073 122.628C202.946 122.897 202.72 123.106 202.442 123.213C202.164 123.32 201.856 123.316 201.581 123.203L200.717 122.844C201.493 120.17 202.753 115.846 203.344 113.85C204.081 111.364 204.411 94.9709 204.502 88.9959C205.431 88.0497 205.913 88.0497 205.913 88.0497L207.531 113.24Z" fill="#1F4385"/>
<path d="M247.189 135.705L245.709 135.868L234.14 97.9249L231.912 90.728L235.425 90.3038L237.782 99.3135L247.189 135.705Z" fill="#CEEBFB"/>
<path d="M237.782 99.3135C236.711 98.8747 235.063 98.2166 234.14 97.9241L231.914 90.7287L235.427 90.3038L237.782 99.3135Z" fill="#A7D7F4"/>
<path d="M227.77 95.8745C227.77 95.8745 235.224 92.3835 241.28 95.8745L242.463 91.8578H228.731L227.77 95.8745Z" fill="#8FC7EC"/>
<path d="M226.465 90.647L225.704 92.5337L223.782 97.3006L209.371 133.053L207.91 132.767L221.431 94.3815L222.321 91.8573L222.998 89.9333L226.465 90.647Z" fill="#A7D7F4"/>
<path d="M225.704 92.5337L222.321 91.8573L221.431 94.3808L223.782 97.3007L225.704 92.5337Z" fill="#8FC7EC"/>
<path d="M230.163 93.4033L227.368 101.581L215.635 135.911H214.063L224.798 99.2489L226.664 92.8768L230.163 93.4033Z" fill="#A7D7F4"/>
<path d="M230.163 93.4033L227.368 101.581L224.798 99.2489L226.664 92.8768L230.163 93.4033Z" fill="#8FC7EC"/>
<path d="M256.796 135.909L255.114 135.911L242.171 101.048L239.414 93.6234L242.899 93.0055L246.172 103.189L256.796 135.909Z" fill="#A7D7F4"/>
<path d="M246.172 103.189C244.813 102.464 243.16 101.58 242.172 101.048L239.415 93.6234L242.899 93.0055L246.172 103.189Z" fill="#8FC7EC"/>
<path d="M175.93 76.5372L173.372 84.178L155.667 136.587C155.599 136.788 155.471 136.962 155.299 137.086C155.127 137.209 154.921 137.276 154.709 137.276H153.18C153.025 137.276 152.872 137.24 152.733 137.171C152.593 137.102 152.472 137.002 152.378 136.878C152.284 136.755 152.219 136.611 152.19 136.459C152.16 136.306 152.166 136.149 152.207 135.999L167.803 79.1083L168.508 76.5358L175.93 76.5372Z" fill="#C8E9FB"/>
<path d="M175.93 76.5377L173.37 84.1785L167.801 79.1102L168.505 76.5377H175.93Z" fill="#A7D7F4"/>
<path d="M275.1 137.421H273.212C273.038 137.421 272.868 137.366 272.726 137.264C272.584 137.162 272.478 137.019 272.423 136.853L253.13 80.9861L251.639 76.5358H259.062L261.474 85.3451L275.904 136.366C275.939 136.49 275.944 136.62 275.92 136.746C275.895 136.873 275.842 136.991 275.764 137.094C275.686 137.196 275.586 137.279 275.47 137.335C275.355 137.392 275.228 137.422 275.1 137.421V137.421Z" fill="#C8E9FB"/>
<path d="M261.472 85.347C259.007 84.0805 255.211 82.1186 253.127 80.9881L251.636 76.5377H259.059L261.472 85.347Z" fill="#A7D7F4"/>
<path d="M220.345 93.0849C220.918 93.4615 234.759 93.2808 241.92 93.158C242.431 93.1496 242.933 93.027 243.39 92.7993C243.847 92.5716 244.248 92.2444 244.562 91.8418C244.877 91.4392 245.097 90.9713 245.208 90.4724C245.318 89.9735 245.315 89.4562 245.2 88.9585C244.284 85.0054 242.907 79.3792 242.086 77.5386C240.771 74.6041 237.439 77.2118 237.439 77.2118C237.439 77.2118 218.766 92.0465 220.345 93.0849Z" fill="#0D1D42"/>
<path d="M212.388 62.296L211.75 66.5562L218.83 67.6633L220.122 62.296H212.388Z" fill="#ED9068"/>
<path d="M242.991 60.7891C241.883 61.2446 238.949 61.6622 235.578 62.0146C229.147 62.6852 221.118 63.1173 221.118 63.1173C221.118 63.1173 220.991 63.1173 220.764 63.1173C220.537 63.1173 220.217 63.1129 219.828 63.1056C219.331 63.0961 218.724 63.08 218.069 63.0523C215.482 62.9411 212.137 62.6457 211.812 61.8647C211.274 60.5755 214.353 50.3315 215.57 48.2541C216.025 47.4768 217.21 46.9144 218.515 46.5144C219.192 46.3112 219.879 46.1438 220.574 46.0128C222.027 45.7327 223.217 45.6318 223.217 45.6318L231.318 45.7108C231.318 45.7108 232.093 45.985 233.233 46.3938C233.737 46.5744 234.312 46.7814 234.923 47.0029C235.887 47.3525 236.94 47.7342 237.943 48.1108C241.022 49.2573 242.275 55.0956 242.991 58.1398C243.707 61.1839 242.991 60.7891 242.991 60.7891Z" fill="#F2FAFD"/>
<path d="M220.764 63.1161C220.539 63.1161 220.218 63.1117 219.828 63.1044C219.331 63.0949 218.725 63.0788 218.069 63.051C217.86 59.9798 218.522 51.4366 218.522 51.4366L220.764 63.1161Z" fill="#A9E0F9"/>
<path d="M211.834 60.4496C213.556 61.3476 219.744 61.466 219.808 61.4872" stroke="#42A8DF" stroke-width="0.278649"/>
<path d="M235.578 62.0146L233.709 55.9329L233.504 60.403L234.541 63.1173L235.578 62.0146Z" fill="#A9E0F9"/>
<path d="M217.847 69.3031C217.847 69.3418 217.233 73.0755 217.233 73.0755H199.647L198.485 69.9384L213.729 68.7684L217.847 69.3031Z" fill="#ED9068"/>
<path d="M228.662 23.7519C227.868 23.1646 226.949 22.7701 225.977 22.5995C224.689 22.4161 223.375 22.603 222.189 23.1384C220.103 24.0163 218.334 25.5096 217.117 27.4191C216.203 28.637 215.537 30.0233 215.157 31.4987C215.089 31.7729 214.956 32.6753 214.667 34.4697C214.545 35.6061 214.364 36.7353 214.123 37.8525C213.77 39.1075 213.181 40.284 212.389 41.3193C213.131 42.1401 214.114 42.7035 215.197 42.928C216.068 43.1093 216.971 43.0619 217.818 42.7906C219.112 44.1536 220.199 44.4534 220.934 44.4775C222.748 44.5507 223.59 43.0509 225.879 42.5163C227.163 42.2478 228.495 42.3235 229.74 42.7357C230.934 43.2892 232.289 43.3837 233.548 43.0012C234.807 42.6188 235.881 41.7861 236.566 40.6619C237.486 40.4604 238.333 40.0111 239.016 39.3625C239.49 38.909 239.871 38.3679 240.138 37.7691C239.611 37.5444 239.129 37.2252 238.717 36.8273C238.027 36.106 237.552 35.2062 237.345 34.2292C236.894 32.4919 236.351 30.7799 235.718 29.1002C235.159 27.6772 234.312 26.3853 233.229 25.3058C231.677 23.8353 230.436 23.6729 230.16 23.6437C229.658 23.5912 229.151 23.6278 228.662 23.7519V23.7519Z" fill="#132149"/>
<path d="M231.318 45.7094C231.146 46.8531 230.417 48.0048 229.568 48.788C228.719 49.5711 227.96 49.9887 226.808 50.0669C225.655 50.1451 224.663 50.0793 223.865 49.2318C222.829 47.9383 223.122 46.263 223.218 45.6305L223.846 45.5573C223.809 44.9599 223.86 44.3654 223.885 43.7702C223.902 43.4462 223.902 43.1216 223.885 42.7976L230.192 39.6174L230.161 44.4283L230.155 45.3687L231.318 45.7094Z" fill="#FAB186"/>
<path d="M230.192 39.6196L230.16 44.4305C228.305 44.9511 225.657 44.372 223.885 43.7724C223.902 43.4484 223.902 43.1238 223.885 42.7998L230.192 39.6196Z" fill="#F08968"/>
<path d="M231.139 35.5266C231.066 37.3986 231.042 38.619 230.254 39.914C229.597 40.9013 228.71 41.7133 227.668 42.2796C226.396 43.0928 225.238 43.8335 223.828 43.5958C222.972 43.4006 222.19 42.9659 221.572 42.3425C220.44 41.2711 219.66 39.8804 219.335 38.355C219.129 37.2633 219.408 37.0819 219.223 35.8761C219.087 35.0249 218.926 34.9621 218.733 33.9924C218.665 33.7178 218.614 33.4395 218.579 33.1588C218.557 32.9855 218.542 32.8107 218.533 32.636C218.522 32.4361 218.52 32.236 218.526 32.0356C218.526 31.9318 218.534 31.8287 218.542 31.7248C218.86 29.9494 221.671 28.8218 223.605 28.5147C223.825 28.5001 228.696 27.8142 230.561 30.7208C230.866 31.1947 231.026 31.7117 231.104 32.3691C231.199 33.1566 231.173 34.154 231.139 35.5266Z" fill="#FAB186"/>
<path d="M227.824 33.9007C228.894 33.3888 229.534 32.5006 229.255 31.917C228.976 31.3334 227.883 31.2753 226.814 31.7873C225.745 32.2992 225.104 33.1873 225.383 33.771C225.662 34.3546 226.755 34.4127 227.824 33.9007Z" fill="#F08968"/>
<path d="M222.148 34.3224C221.816 34.8782 220.722 34.8343 219.704 34.2259C219.197 33.9224 218.803 33.5349 218.579 33.1539C218.557 32.9806 218.542 32.8058 218.533 32.6311C218.522 32.4312 218.52 32.2311 218.526 32.0307C218.917 31.5693 219.946 31.6395 220.907 32.215C221.082 32.32 221.25 32.4388 221.406 32.5704C222.095 33.1488 222.421 33.8669 222.148 34.3224Z" fill="#F08968"/>
<path d="M231.104 32.3641C230.639 32.6302 229.95 32.6997 229.204 32.6566C228.181 32.6017 227.053 32.3399 226.263 32.0972C226.172 32.0694 226.084 32.0409 226.003 32.0138C225.027 32.0908 224.056 32.2214 223.095 32.405C222.536 32.4947 221.972 32.5492 221.406 32.5681C220.5 32.6134 219.447 32.6288 218.532 32.6288C218.521 32.4289 218.519 32.2288 218.526 32.0284C218.526 31.9246 218.533 31.8215 218.541 31.7176C218.859 29.9422 221.67 28.8146 223.605 28.5075C223.824 28.4929 228.695 27.807 230.56 30.7136C230.866 31.1897 231.026 31.7067 231.104 32.3641Z" fill="#F08968"/>
<path d="M218.524 31.8889C218.816 32.2274 219.295 32.1953 223.465 31.7529L226.196 31.4604L226.837 30.2575C226.781 30.3795 226.756 30.5129 226.763 30.6467C226.77 30.7805 226.808 30.9107 226.876 31.0264C226.943 31.1422 227.037 31.2401 227.15 31.312C227.263 31.3839 227.392 31.4278 227.525 31.4399C228.813 31.7565 230.656 32.2121 231.284 31.4033C232.022 30.4593 230.878 28.055 229.306 26.7234C228.196 25.8285 226.838 25.2958 225.415 25.1972C223.993 25.0986 222.575 25.4389 221.352 26.172C218.955 27.712 217.708 30.9361 218.524 31.8889Z" fill="#132149"/>
<path d="M231.154 33.1179C231.311 32.8629 231.554 32.6723 231.84 32.5805C232.123 32.5359 232.413 32.5771 232.672 32.699C232.932 32.8209 233.149 33.0177 233.295 33.2642C233.906 34.2404 232.85 35.5493 232.768 35.648C232.656 35.8192 232.511 35.9663 232.342 36.0807C232.172 36.1951 231.982 36.2745 231.781 36.3142C231.557 36.3419 231.331 36.2968 231.134 36.1855C230.401 35.7189 230.423 34.0663 231.154 33.1179Z" fill="#FAB186"/>
<path d="M231.384 33.4386C231.523 33.2279 231.729 33.0702 231.968 32.9911C232.21 32.9518 232.459 32.9853 232.682 33.0872C232.906 33.1891 233.094 33.3549 233.223 33.5636C233.743 34.4177 232.84 35.5263 232.766 35.6111C232.566 35.9006 232.26 36.0997 231.915 36.1654C231.726 36.2077 231.528 36.1866 231.351 36.1055C230.735 35.6769 230.755 34.2627 231.384 33.4386Z" fill="#F29370"/>
<path d="M219.232 33.2959C219.357 33.4692 219.753 33.2228 220.415 33.2162C221.077 33.2096 221.347 33.4187 221.73 33.2059C221.925 33.0999 222.146 32.8835 222.106 32.7241C222.033 32.4484 221.267 32.4462 221.002 32.4447C220.736 32.4433 219.527 32.4308 219.248 33.0239C219.229 33.0451 219.166 33.1964 219.232 33.2959Z" fill="#132149"/>
<path d="M226.388 32.5094C226.065 32.5825 225.877 32.652 225.714 32.5548C225.627 32.4941 225.562 32.407 225.529 32.3065C225.496 32.206 225.496 32.0973 225.529 31.9968C225.564 31.9333 225.612 31.878 225.67 31.8345C225.728 31.7909 225.795 31.7597 225.866 31.7431C226.502 31.5463 227.181 31.5281 227.827 31.6904C228.328 31.8367 228.965 32.105 228.939 32.3083C228.924 32.3487 228.898 32.3846 228.866 32.4129C228.835 32.4419 228.797 32.4625 228.756 32.4729C228.693 32.4788 228.63 32.4641 228.576 32.4312C228.303 32.2776 227.322 32.2966 226.388 32.5094Z" fill="#132149"/>
<path d="M221.336 36.4652L221.266 36.3813C221.289 36.4078 221.313 36.4358 221.336 36.4652Z" fill="white"/>
<path d="M222.67 36.5127V36.5193C222.227 36.6026 221.77 36.5828 221.336 36.4615C221.312 36.4342 221.288 36.4064 221.263 36.3781L221.332 36.4615L221.252 36.4374C220.922 36.3463 220.614 36.1892 220.347 35.9755C220.079 35.7618 219.858 35.4961 219.696 35.1943C219.592 34.9688 219.526 34.728 219.499 34.4813C219.491 34.4082 219.486 34.3351 219.485 34.2619C219.558 34.2429 219.635 34.2268 219.711 34.2151C220.036 34.161 220.368 34.1677 220.691 34.2349C220.691 34.2349 220.691 34.2349 220.691 34.2385L220.712 34.2429C221.098 34.3171 221.462 34.4822 221.772 34.7248C221.923 34.8426 222.061 34.9779 222.18 35.1277C222.487 35.5255 222.658 36.0107 222.67 36.5127V36.5127Z" fill="white"/>
<path d="M221.336 36.4652L221.266 36.3813C221.289 36.4078 221.313 36.4358 221.336 36.4652Z" fill="white"/>
<path d="M229.524 34.9296C229.243 35.3354 228.864 35.6627 228.422 35.8802C228.315 35.9324 228.205 35.9781 228.093 36.017C227.912 36.0885 227.728 36.1486 227.54 36.1968C226.971 36.3604 226.373 36.4037 225.786 36.3241C225.655 36.3065 225.523 36.2824 225.393 36.251C225.435 36.1405 225.473 36.0316 225.512 35.9351C225.654 35.5694 225.797 35.2557 226.076 34.9252C226.248 34.7429 226.429 34.5693 226.619 34.4053C226.765 34.292 226.934 34.2386 227.1 34.1574C227.1 34.1574 227.1 34.1494 227.1 34.1457C227.416 34.0058 227.736 33.8776 228.061 33.7611C228.312 33.6699 228.565 33.5861 228.821 33.5095C229.25 33.3823 229.655 33.2865 230.033 33.2068C230.051 33.8206 229.872 34.4241 229.524 34.9296V34.9296Z" fill="white"/>
<path d="M223.154 36.84C223.147 37.0799 223.096 37.3166 223.004 37.5383C222.851 37.8973 222.68 37.9873 222.705 38.2074C222.737 38.3368 222.802 38.4555 222.895 38.5511C222.988 38.6467 223.104 38.7159 223.233 38.7514C223.392 38.8059 223.563 38.8133 223.725 38.7726" stroke="#F29473" stroke-width="0.233201" stroke-linecap="round" stroke-linejoin="round"/>
<path d="M226.612 39.783L226.063 39.9373C225.537 40.0836 223.578 40.6305 223.413 40.3468C223.401 40.2875 223.372 40.2331 223.329 40.1903C223.283 40.1299 223.245 40.0628 223.218 39.9914C223.959 39.8379 224.709 39.6748 225.473 39.4905L226.594 39.2185C226.625 39.405 226.632 39.5949 226.612 39.783V39.783Z" fill="white"/>
<path d="M226.611 39.782C226.588 39.9967 226.527 40.2056 226.432 40.3992C226.281 40.6785 226.066 40.9181 225.805 41.0986C225.544 41.279 225.244 41.3952 224.93 41.4375C224.681 41.4761 224.427 41.4606 224.186 41.3921C223.944 41.3236 223.719 41.2036 223.528 41.0405C223.252 40.774 223.075 40.4223 223.024 40.0423L223.188 39.9875C223.215 40.0299 223.254 40.1008 223.299 40.1864C223.345 40.2719 223.378 40.3326 223.383 40.3428C223.545 40.6266 225.506 40.0767 226.033 39.9334L226.611 39.782Z" fill="#C73252"/>
<path d="M232.252 36.9039C232.607 36.8805 232.872 36.5499 232.847 36.166C232.821 35.7821 232.513 35.4911 232.16 35.5145C231.806 35.5379 231.54 35.8692 231.565 36.2523C231.591 36.6355 231.899 36.9258 232.252 36.9039Z" fill="white"/>
<path d="M220.577 38.3304C221.101 38.2951 221.603 38.1051 222.019 37.7844C222.435 37.4637 222.747 37.0268 222.915 36.5288C223.083 36.0308 223.099 35.4942 222.963 34.9868C222.826 34.4794 222.542 34.024 222.146 33.6781C221.751 33.3323 221.262 33.1116 220.741 33.0439C220.22 32.9762 219.691 33.0645 219.22 33.2978C218.749 33.531 218.358 33.8987 218.096 34.3543C217.835 34.8099 217.714 35.333 217.749 35.8573C217.772 36.2055 217.864 36.5457 218.019 36.8585C218.173 37.1712 218.388 37.4504 218.651 37.68C218.914 37.9097 219.219 38.0853 219.549 38.1969C219.88 38.3085 220.229 38.3539 220.577 38.3304Z" stroke="white" stroke-width="0.185518" stroke-linecap="round" stroke-linejoin="round"/>
<path d="M223.002 35.1644C223.121 35.0197 223.289 34.9243 223.475 34.8968C223.618 34.8816 223.763 34.9067 223.893 34.9692C224.023 35.0317 224.133 35.1292 224.211 35.2507" stroke="white" stroke-width="0.185518" stroke-linecap="round" stroke-linejoin="round"/>
<path d="M229.695 33.6238L231.134 33.1193" stroke="white" stroke-width="0.185518" stroke-linecap="round" stroke-linejoin="round"/>
<path d="M228.604 35.0754C228.605 35.3551 228.543 35.6313 228.422 35.8834C228.315 35.9356 228.205 35.9813 228.093 36.0202C227.913 36.0917 227.728 36.1518 227.54 36.2001C226.971 36.3636 226.373 36.4069 225.786 36.3273C225.678 36.2111 225.586 36.0807 225.512 35.9397C225.654 35.5741 225.797 35.2604 226.076 34.9299C226.248 34.7475 226.429 34.574 226.619 34.41C226.765 34.2966 226.934 34.2432 227.1 34.1621C227.1 34.1621 227.1 34.154 227.1 34.1504C227.416 34.0105 227.736 33.8823 228.061 33.7657C228.234 33.9369 228.372 34.1409 228.465 34.3658C228.558 34.5907 228.605 34.8319 228.604 35.0754V35.0754Z" fill="#132149"/>
<path d="M221.957 35.6013C221.959 35.9279 221.886 36.2506 221.744 36.5446C221.606 36.5266 221.47 36.4988 221.336 36.4613C221.312 36.434 221.288 36.4062 221.262 36.3779L221.332 36.4613L221.252 36.4371C220.922 36.3461 220.614 36.189 220.347 35.9753C220.079 35.7616 219.858 35.4958 219.696 35.194C219.592 34.9686 219.526 34.7278 219.499 34.4811C219.56 34.3845 219.631 34.2948 219.712 34.2134C220.037 34.1593 220.369 34.166 220.692 34.2332C220.692 34.2332 220.692 34.2332 220.692 34.2368L220.712 34.2412C221.099 34.3153 221.462 34.4805 221.773 34.7231C221.895 34.9996 221.958 35.2989 221.957 35.6013V35.6013Z" fill="#132149"/>
<path d="M230.036 33.2081C229.744 33.2864 229.322 33.4034 228.832 33.5591C228.24 33.7236 227.659 33.9268 227.094 34.1675C226.928 34.2449 226.769 34.3395 226.622 34.4498C226.043 34.9152 225.615 35.5427 225.392 36.2523C225.533 35.3456 226.001 34.5221 226.708 33.9379C227.136 33.6292 227.622 33.4123 228.138 33.301C228.757 33.1383 229.404 33.1067 230.036 33.2081V33.2081Z" fill="#122148"/>
<path d="M227.412 37.8711C229.088 37.7578 230.368 36.4818 230.27 35.0149C230.171 33.548 228.735 32.4555 227.054 32.5682C225.373 32.6808 224.097 33.9575 224.196 35.4237C224.295 36.8898 225.735 37.9837 227.412 37.8711Z" stroke="white" stroke-width="0.185518" stroke-linecap="round" stroke-linejoin="round"/>
<path d="M222.67 36.5189V36.5124C222.659 36.0104 222.489 35.525 222.183 35.1266C221.814 34.6667 221.293 34.353 220.714 34.2418L220.694 34.2375C220.694 34.2375 220.694 34.2375 220.694 34.2338C220.295 34.1506 219.883 34.1598 219.488 34.2609V34.2609C219.366 34.2124 219.266 34.1212 219.206 34.0042C219.164 33.9168 219.148 33.8188 219.162 33.7227C219.362 33.7629 219.66 33.817 220.051 33.8645C220.464 33.8804 220.874 33.9452 221.272 34.0576C221.625 34.2053 221.932 34.4462 222.159 34.7544C222.539 35.26 222.721 35.8879 222.67 36.5189Z" fill="#122148"/>
<path d="M228.464 35.1206C228.611 35.1206 228.731 35.0695 228.731 35.0065C228.731 34.9435 228.611 34.8925 228.464 34.8925C228.317 34.8925 228.197 34.9435 228.197 35.0065C228.197 35.0695 228.317 35.1206 228.464 35.1206Z" fill="white"/>
<path d="M221.843 35.6011C221.99 35.6011 222.11 35.55 222.11 35.487C222.11 35.424 221.99 35.3729 221.843 35.3729C221.695 35.3729 221.576 35.424 221.576 35.487C221.576 35.55 221.695 35.6011 221.843 35.6011Z" fill="white"/>
<path d="M220.12 73.4995C220.12 73.4995 220.911 71.3636 220.831 69.5508C220.787 68.568 220.282 65.6087 219.828 63.1049C219.445 60.9843 219.097 59.1942 219.097 59.1942C219.097 59.1942 219.065 58.9193 219.014 58.4483C218.76 56.1084 218.042 48.9334 218.514 46.5137C219.191 46.3105 219.878 46.143 220.573 46.0121C220.523 47.7671 220.622 52.575 221.272 56.0915C221.272 56.0915 221.683 56.1427 222.368 56.2078C223.91 56.3541 226.839 56.5676 229.578 56.4162C229.791 56.4045 230.002 56.3906 230.213 56.3738C230.213 56.3738 231.568 48.8281 233.232 46.3931C233.735 46.5737 234.31 46.7806 234.922 47.0022C234.252 48.6007 232.994 52.3739 233.112 57.9855C233.112 57.9855 233.136 58.2107 233.194 58.5317C233.268 58.9656 233.384 59.3913 233.541 59.8026V59.8026C233.702 60.2033 233.917 60.5485 234.199 60.6801C234.199 60.6801 234.24 62.1557 235.576 62.0095L236.43 68.1278L237.179 73.4944L220.12 73.4995Z" fill="#1C6AB0"/>
<path d="M240.529 83.522C240.506 84.1439 240.443 84.7635 240.34 85.3772C240.116 86.67 239.683 87.7903 238.911 88.4206C236.952 90.0294 227.51 91.309 221.887 91.9445L221.783 91.9562H221.776L221.102 92.0293C219.425 92.2129 218.196 92.3291 217.79 92.3657H217.766H217.728H217.711H217.696H217.672H217.647C217.439 92.4326 217.255 92.5598 217.119 92.7313C216.96 92.9327 216.858 93.1727 216.823 93.4267C216.799 93.5803 216.791 93.7359 216.799 93.8911C216.848 95.0069 217.681 113.488 217.978 118.516C217.999 118.874 217.883 119.226 217.653 119.501C217.423 119.776 217.097 119.953 216.741 119.996L207.825 121.066C207.686 121.083 207.546 121.071 207.412 121.031C207.278 120.991 207.154 120.924 207.047 120.834C206.94 120.743 206.853 120.632 206.791 120.507C206.729 120.382 206.693 120.245 206.687 120.105C206.441 115.157 205.72 94.2421 205.904 87.383C205.921 86.6943 206.106 86.0202 206.441 85.4186C206.776 84.8169 207.253 84.3056 207.829 83.9286C209.456 82.8661 212.346 81.4102 216.944 80.4223L218.833 77.1953H240.044C240.044 77.1953 240.66 80.4472 240.529 83.522Z" fill="#1C6AB0"/>
<path d="M220.367 46.3922C220.316 46.5538 222.373 56.4834 222.373 56.4834L220.984 56.2691L220.367 46.3922Z" fill="#A9E0F9"/>
<path d="M222.369 56.2085C222.369 57.4626 220.709 59.9693 219.015 58.4491C218.761 56.1091 218.043 48.9341 218.515 46.5144C219.192 46.3112 219.879 46.1438 220.574 46.0128C220.524 47.7678 220.623 52.5757 221.273 56.0923C221.273 56.0908 221.683 56.142 222.369 56.2085Z" fill="#174885"/>
<path d="M220.084 57.6035C220.394 57.6035 220.645 57.3521 220.645 57.0419C220.645 56.7318 220.394 56.4803 220.084 56.4803C219.774 56.4803 219.522 56.7318 219.522 57.0419C219.522 57.3521 219.774 57.6035 220.084 57.6035Z" fill="white"/>
<path d="M229.579 56.4157L232.771 47.7819L230.428 56.8244L229.579 56.4157Z" fill="#A9E0F9"/>
<path d="M233.113 57.9846C233.113 57.9846 233.137 58.2098 233.195 58.5309C231.318 60.348 229.579 57.5693 229.579 56.4146C229.792 56.4029 230.004 56.389 230.214 56.3722C230.214 56.3722 231.57 48.8265 233.233 46.3915C233.737 46.5721 234.312 46.779 234.924 47.0006C234.253 48.6035 232.995 52.373 233.113 57.9846Z" fill="#174885"/>
<path d="M231.569 57.6035C231.879 57.6035 232.13 57.3521 232.13 57.0419C232.13 56.7318 231.879 56.4803 231.569 56.4803C231.259 56.4803 231.008 56.7318 231.008 57.0419C231.008 57.3521 231.259 57.6035 231.569 57.6035Z" fill="white"/>
<path d="M222.61 45.6949C222.49 46.5893 222.429 48.6046 223.585 49.7446C225.091 51.2297 228.08 51.0608 229.951 49.3358C231.413 47.9947 231.989 46.5754 232.174 46.0138" stroke="#42A8DF" stroke-width="0.278649"/>
<path d="M234.201 60.6843C234.201 60.6843 240.459 59.5282 243.234 59.3519" stroke="#42A8DF" stroke-width="0.278649"/>
<path d="M231.037 62.2968H223.098C222.943 62.2968 222.795 62.3584 222.685 62.4681C222.575 62.5778 222.514 62.7266 222.514 62.8817V64.4437C222.514 64.5988 222.575 64.7476 222.685 64.8573C222.795 64.967 222.943 65.0287 223.098 65.0287H231.037C231.192 65.0287 231.341 64.967 231.451 64.8573C231.56 64.7476 231.622 64.5988 231.622 64.4437V62.8832C231.622 62.8063 231.607 62.73 231.578 62.6589C231.548 62.5877 231.505 62.5231 231.451 62.4686C231.397 62.4141 231.332 62.3709 231.261 62.3414C231.19 62.3119 231.114 62.2968 231.037 62.2968Z" fill="white"/>
<path d="M222.473 63.541C223.915 63.7085 226.867 63.9066 231.709 63.541C231.761 63.5347 231.814 63.5394 231.864 63.5549C231.915 63.5691 231.962 63.5941 232.002 63.628C232.042 63.6628 232.074 63.7055 232.096 63.7535C232.118 63.8016 232.13 63.8537 232.13 63.9066C232.13 65.4298 232.067 70.6962 231.709 73.3177C231.661 73.6573 231.498 73.9702 231.247 74.2035C230.996 74.4368 230.672 74.5762 230.33 74.5982C228.004 74.7488 225.669 74.7319 223.345 74.5477C223.057 74.5272 222.786 74.4045 222.58 74.2017C222.374 73.9989 222.248 73.7293 222.223 73.4413C221.922 70.282 221.849 67.105 222.003 63.9352C222.006 63.8781 222.021 63.8222 222.046 63.7709C222.071 63.7196 222.106 63.674 222.15 63.6368C222.192 63.6 222.242 63.5721 222.296 63.5549C222.351 63.5385 222.408 63.5333 222.465 63.5396L222.473 63.541Z" fill="#184888"/>
<path d="M230.547 63.2769C230.583 63.2769 230.618 63.2662 230.648 63.2462C230.678 63.2262 230.701 63.1977 230.715 63.1645C230.729 63.1312 230.732 63.0946 230.725 63.0593C230.718 63.024 230.701 62.9915 230.675 62.966C230.65 62.9406 230.618 62.9232 230.582 62.9162C230.547 62.9092 230.51 62.9128 230.477 62.9266C230.444 62.9404 230.415 62.9637 230.395 62.9936C230.375 63.0236 230.365 63.0588 230.365 63.0948C230.365 63.143 230.384 63.1892 230.418 63.2233C230.452 63.2574 230.499 63.2767 230.547 63.2769Z" fill="#192432"/>
<path d="M222.865 64.3874C224.652 64.5739 228.319 64.8503 231.196 64.3728" stroke="white" stroke-width="0.175087" stroke-miterlimit="10" stroke-dasharray="1.05 1.05"/>
<path d="M236.432 68.1329L234.924 69.1201C234.924 69.1201 233.674 69.8762 234.201 68.0116C234.701 66.2427 233.651 60.3978 233.543 59.8041C233.705 60.2048 233.919 60.5499 234.201 60.6816C234.201 60.6816 234.242 62.1572 235.578 62.011L236.432 68.1329Z" fill="#174885"/>
<path d="M241.449 73.1006C239.442 74.9736 220.836 70.292 220.836 70.292C220.836 70.292 219.987 68.695 221.293 66.8246C221.293 66.8246 234.661 67.8655 235.516 67.9478C235.649 67.9632 235.783 67.9528 235.911 67.9173C236.39 67.778 236.426 67.2754 236.426 67.2754L235.592 62.0149L242.653 60.8875C242.751 62.3478 243.285 71.3822 241.449 73.1006Z" fill="#FAB186"/>
<path d="M206.744 69.5158C206.779 69.5503 206.822 69.5751 206.869 69.5879C206.916 69.6007 206.966 69.601 207.013 69.5888C207.061 69.5761 207.105 69.5502 207.139 69.5141L207.938 68.7135L208.756 67.895L214.157 62.4918C214.201 62.4485 214.229 62.3919 214.238 62.3309C214.246 62.2698 214.234 62.2077 214.203 62.1542C214.173 62.1007 214.125 62.0589 214.068 62.0352C214.012 62.0115 213.949 62.0072 213.889 62.0231C213.841 62.0355 213.797 62.0614 213.764 62.0978L208.873 66.9891L207.142 68.7203L206.744 69.1236C206.693 69.1759 206.664 69.2464 206.664 69.3197C206.664 69.393 206.693 69.4634 206.744 69.5158Z" fill="#13323D"/>
<path d="M207.148 68.4687C207.16 68.4895 207.177 68.5069 207.197 68.5189C207.218 68.5308 207.242 68.5369 207.265 68.5366C207.622 68.5629 208.503 67.7589 208.602 67.6655C208.541 67.739 208.488 67.819 208.444 67.9041C208.375 68.045 208.339 68.2131 208.482 68.3125C208.512 68.3331 208.544 68.3507 208.578 68.3651C208.934 68.5247 209.304 68.2598 209.359 68.2174L209.329 68.2479C209.19 68.3846 208.735 68.8923 209.329 69.0749C209.387 69.0937 209.446 69.1079 209.505 69.1173L210.689 68.9603C210.659 68.9722 210.63 68.9882 210.604 69.0078L210.592 69.0171C210.491 69.0969 210.359 69.2319 210.346 69.3151C210.317 69.4849 210.312 70.002 212.179 69.7032C212.604 69.6327 213.04 69.67 213.447 69.8118C214.394 70.1421 216.379 70.6608 218.479 70.1514C218.926 70.0419 219.518 70.0198 219.958 70.1514L221.656 70.4563L222.377 66.9328C222.377 66.9328 220.52 66.8165 219.152 66.296C217.785 65.7755 214.485 64.0036 213.382 64.3211C212.279 64.6387 210.251 65.3697 208.641 66.4573C207.888 66.9667 206.896 68.039 207.149 68.4712L207.148 68.4687Z" fill="#FAB186"/>
<path d="M208.602 67.6655C208.541 67.7391 208.488 67.8191 208.444 67.9041L208.605 67.6647L208.611 67.6579C208.611 67.6579 210.926 66.0558 212.61 65.5022C212.61 65.5022 209.462 66.1653 207.264 68.5366C207.622 68.5629 208.502 67.7589 208.602 67.6655Z" fill="#ED9068"/>
<path d="M208.577 68.3663C208.934 68.5259 209.304 68.261 209.358 68.2177H209.366C209.366 68.2177 211.675 67.119 213.019 66.6461C213.019 66.6461 210.389 67.1836 208.577 68.368V68.3663Z" fill="#ED9068"/>
<path d="M209.504 69.1179L210.688 68.9608C210.688 68.9608 212.853 68.2145 213.383 68.1033C213.383 68.1033 212.388 68.2018 210.856 68.6178C209.953 68.8623 209.63 69.0151 209.328 69.0754C209.386 69.0945 209.446 69.1087 209.506 69.1179H209.504Z" fill="#ED9068"/>
<path d="M241.444 73.1003C239.438 74.9733 219.872 70.2408 219.872 70.2408C219.087 70.7358 215.28 70.3155 214.357 70.4106C216.109 70.1559 217.688 69.7246 219.363 69.2644C219.727 69.1876 220.102 69.1876 220.466 69.2644C224.095 70.2128 238.115 73.3881 241.444 73.1003Z" fill="#ED9068"/>
<path d="M236.974 63.2767C236.974 63.2767 237.193 68.1344 235.832 68.0839C236.303 67.9465 236.338 67.4521 236.338 67.4521L235.58 62.0146L242.662 60.8798C242.662 60.8798 242.653 61.0314 242.662 61.1572L236.974 63.2767Z" fill="#ED9068"/>
<path d="M211.066 68.6401C211.066 68.6401 211.379 68.1333 211.75 68.1333H213.561" stroke="#ED9068" stroke-width="0.14901" stroke-miterlimit="10" stroke-linecap="round"/>
<path d="M209.332 68.5613C209.332 68.5613 210.745 66.8114 211.182 66.7025C211.465 66.6294 213.666 66.8765 213.666 66.8765" stroke="#ED9068" stroke-width="0.14901" stroke-miterlimit="10" stroke-linecap="round"/>
<path d="M211.75 65.6418C211.75 65.6418 212.983 65.8459 213.829 66.0418" stroke="#ED9068" stroke-width="0.14901" stroke-miterlimit="10" stroke-linecap="round"/>
<path d="M230.037 77.2147C230.037 77.2147 217.337 79.7682 216.943 80.4417L218.831 77.2147H230.037Z" fill="#1F4385"/>
<path d="M240.529 83.5219C240.1 82.4336 239.596 81.3766 239.02 80.3586C237.915 78.423 234.668 77.5484 232.972 77.2142H240.042C240.042 77.2142 240.66 80.4471 240.529 83.5219Z" fill="#19469D"/>
<path d="M269.07 74.3048V76.3135C269.07 76.3888 269.063 76.4639 269.049 76.538C268.997 76.8201 268.847 77.075 268.626 77.2584C268.406 77.4417 268.128 77.5421 267.841 77.542H163.795C163.508 77.5419 163.23 77.4415 163.01 77.2581C162.789 77.0748 162.64 76.82 162.587 76.538C162.574 76.4639 162.567 76.3888 162.567 76.3135V74.3048C162.567 73.979 162.696 73.6665 162.926 73.4361C163.157 73.2057 163.469 73.0763 163.795 73.0763H267.841C268.003 73.0762 268.162 73.1079 268.311 73.1696C268.46 73.2313 268.596 73.3218 268.71 73.4358C268.824 73.5499 268.914 73.6854 268.976 73.8345C269.038 73.9836 269.07 74.1434 269.07 74.3048V74.3048Z" fill="#5EB2E3"/>
<path d="M269.049 76.5375C268.997 76.8196 268.847 77.0745 268.627 77.2578C268.406 77.4412 268.128 77.5416 267.841 77.5415H163.795C163.508 77.5414 163.23 77.441 163.01 77.2576C162.789 77.0742 162.64 76.8195 162.587 76.5375H269.049Z" fill="#3D98D3"/>
<path d="M236.432 85.3471L222.56 91.3982L221.89 91.9444L221.787 91.9561H221.779C220.061 92.1433 218.302 92.3173 217.794 92.3678H217.77H217.731H217.715H217.7H217.676H217.651C217.443 92.4346 217.259 92.5619 217.123 92.7334C216.964 92.9348 216.862 93.1748 216.827 93.4288C216.67 92.8592 216.81 90.9682 218.349 90.6077C219.092 90.4336 220.78 89.8136 221.439 89.4275C223.997 87.9269 230.501 84.8257 235.089 85.1241C235.542 85.1573 235.992 85.232 236.432 85.3471Z" fill="#19469D"/>
<path d="M221.283 92.429C221.598 92.3194 232.172 82.245 241.28 85.6833C241.28 85.6833 242.125 90.4591 242.034 90.4591C241.942 90.4591 221.283 92.429 221.283 92.429Z" fill="#0D1D42"/>
<path d="M207.85 73.1156H184.585L177.882 60.2451C177.811 60.109 177.777 59.9569 177.782 59.8035C177.787 59.65 177.831 59.5005 177.911 59.3692C177.99 59.238 178.102 59.1295 178.236 59.0542C178.37 58.9789 178.52 58.9393 178.674 58.9393H199.52C199.748 58.9391 199.974 58.9896 200.18 59.087C200.211 59.1023 200.242 59.1185 200.272 59.1346L200.318 59.1617C200.409 59.216 200.495 59.2798 200.573 59.3519C200.598 59.3757 200.623 59.4004 200.646 59.4258C200.742 59.5272 200.824 59.6415 200.888 59.7654L206.883 71.2749L207.099 71.6909C207.109 71.7088 207.119 71.7261 207.131 71.7427L207.85 73.1156Z" fill="#0D1D42"/>
<path d="M206.424 73.1156H184.585L177.882 60.2451C177.811 60.109 177.777 59.9569 177.782 59.8035C177.787 59.65 177.831 59.5005 177.911 59.3692C177.99 59.238 178.102 59.1295 178.236 59.0542C178.37 58.9789 178.52 58.9393 178.674 58.9393H198.092C198.32 58.9391 198.545 58.9896 198.752 59.087C198.783 59.1023 198.814 59.1185 198.844 59.1346L198.89 59.1617C198.981 59.216 199.067 59.2798 199.144 59.3519C199.17 59.3757 199.195 59.4004 199.218 59.4258C199.314 59.5272 199.396 59.6415 199.46 59.7654L205.455 71.2749L205.671 71.6909C205.681 71.7088 205.691 71.7261 205.703 71.7427L206.424 73.1156Z" fill="#1B4587"/>
<path d="M201.755 64.8553C201.757 64.9498 201.739 65.0438 201.701 65.1304L198.157 73.1461H197.171L186.597 73.1504H185.612H177.297L177.679 72.2954C177.686 72.285 177.691 72.2743 177.696 72.2631L177.81 72.0042L180.986 64.8409C181.019 64.765 181.062 64.6939 181.114 64.6295C181.127 64.6133 181.14 64.5981 181.153 64.5836C181.194 64.5394 181.239 64.4995 181.288 64.4647L181.312 64.4478L181.361 64.4181C181.468 64.3583 181.588 64.3268 181.71 64.3264L191.001 64.3221H191.983C191.999 64.3208 192.016 64.3208 192.032 64.3221H200.294H201.279C201.362 64.3218 201.443 64.3467 201.511 64.3934C201.583 64.443 201.642 64.5102 201.681 64.5887C201.725 64.6711 201.75 64.7621 201.755 64.8553V64.8553Z" fill="#A7D7F4"/>
<path d="M200.77 64.8551C200.772 64.9496 200.754 65.0435 200.716 65.1302L197.171 73.1459L186.597 73.1501H185.612H177.297L177.679 72.2951C177.686 72.2848 177.691 72.274 177.696 72.2629L177.81 72.0039L180.986 64.8406C181.019 64.7648 181.062 64.6937 181.114 64.6292C181.127 64.6131 181.14 64.5978 181.153 64.5834C181.194 64.5391 181.239 64.4992 181.288 64.4645L181.312 64.4476L181.361 64.4178C181.468 64.3581 181.588 64.3265 181.71 64.3261L191.001 64.3219H191.014H191.054H192.036H200.297H200.313C200.39 64.3248 200.465 64.3495 200.529 64.3932C200.601 64.4423 200.66 64.5096 200.698 64.5885C200.741 64.6711 200.765 64.7621 200.77 64.8551V64.8551Z" fill="#0D1D42"/>
<path d="M197.873 61.5294C197.873 61.6501 197.825 61.7657 197.739 61.851C197.654 61.9363 197.538 61.9843 197.418 61.9845H186.157C186.036 61.9845 185.921 61.9365 185.835 61.8512C185.75 61.7659 185.702 61.6501 185.702 61.5294C185.702 61.4087 185.75 61.293 185.835 61.2076C185.921 61.1223 186.036 61.0743 186.157 61.0743H197.422C197.543 61.0746 197.658 61.1226 197.744 61.2078C197.829 61.2931 197.877 61.4087 197.878 61.5294H197.873Z" fill="#0D1D42"/>
<path d="M196.183 61.5294C196.183 61.6194 196.157 61.7074 196.107 61.7823C196.057 61.8571 195.985 61.9154 195.902 61.9497C195.847 61.9727 195.788 61.9845 195.728 61.9845H186.157C186.036 61.9845 185.921 61.9365 185.835 61.8512C185.75 61.7659 185.702 61.6501 185.702 61.5294C185.702 61.4087 185.75 61.293 185.835 61.2076C185.921 61.1223 186.036 61.0743 186.157 61.0743H195.73C195.79 61.074 195.849 61.0856 195.905 61.1083C195.96 61.1309 196.011 61.1644 196.053 61.2068C196.096 61.249 196.13 61.2993 196.153 61.3547C196.176 61.4101 196.187 61.4694 196.187 61.5294H196.183Z" fill="#A7D7F4"/>
<path d="M183.211 61.4011L183.26 61.6057C183.273 61.6536 183.296 61.6981 183.328 61.7356C183.36 61.7732 183.402 61.8024 183.448 61.8205L183.645 61.8961C183.699 61.9155 183.746 61.95 183.781 61.9954C183.815 62.041 183.836 62.095 183.841 62.1517C183.846 62.2083 183.835 62.2651 183.81 62.3159C183.784 62.3667 183.745 62.4095 183.697 62.4395L183.517 62.5498C183.475 62.5756 183.44 62.6112 183.415 62.6534C183.389 62.696 183.375 62.7441 183.372 62.7935L183.361 63.0041C183.359 63.0611 183.34 63.1163 183.307 63.1629C183.274 63.2101 183.228 63.2471 183.175 63.2696C183.122 63.2921 183.064 63.2993 183.007 63.2902C182.951 63.2813 182.898 63.2572 182.855 63.2206L182.695 63.0839C182.658 63.0515 182.613 63.0287 182.564 63.0176C182.516 63.0058 182.466 63.0058 182.418 63.0176L182.214 63.072C182.159 63.0881 182.1 63.0881 182.044 63.072C181.99 63.0549 181.941 63.0236 181.903 62.9812C181.866 62.9384 181.841 62.886 181.832 62.83C181.823 62.7728 181.829 62.714 181.851 62.6602L181.936 62.4658C181.955 62.42 181.963 62.3701 181.958 62.3206C181.953 62.2712 181.937 62.2237 181.909 62.1822L181.795 62.0056C181.764 61.9576 181.747 61.9021 181.746 61.8452C181.745 61.7879 181.761 61.7316 181.791 61.6829C181.821 61.6342 181.864 61.5954 181.916 61.5709C181.967 61.5448 182.023 61.5334 182.08 61.5378L182.29 61.5539C182.34 61.5581 182.389 61.5499 182.435 61.5301C182.48 61.5116 182.519 61.4824 182.551 61.4452L182.683 61.2822C182.72 61.2383 182.768 61.2055 182.822 61.1873C182.876 61.1692 182.934 61.1665 182.989 61.1795C183.044 61.1919 183.095 61.2196 183.135 61.2593C183.176 61.2983 183.205 61.348 183.219 61.4028L183.211 61.4011Z" fill="#0D1D42"/>
<path d="M183.073 61.6339L183.107 61.7765C183.115 61.81 183.131 61.8409 183.154 61.8665C183.177 61.8928 183.206 61.9129 183.239 61.9251L183.376 61.9777C183.413 61.9915 183.445 62.0157 183.469 62.0474C183.493 62.0786 183.508 62.1164 183.511 62.156C183.515 62.1955 183.507 62.2352 183.489 62.2706C183.472 62.3059 183.444 62.3354 183.41 62.3555L183.286 62.4328C183.256 62.4508 183.232 62.4756 183.214 62.505C183.196 62.5346 183.186 62.5681 183.185 62.6026L183.177 62.7486C183.175 62.7782 183.167 62.807 183.154 62.8334C183.141 62.8597 183.122 62.883 183.099 62.9017C183.076 62.9203 183.049 62.934 183.021 62.9419C182.992 62.9498 182.963 62.9516 182.933 62.9473C182.894 62.9412 182.858 62.9244 182.827 62.8989L182.716 62.8038C182.69 62.781 182.659 62.7653 182.625 62.758C182.592 62.7495 182.557 62.7495 182.524 62.758L182.382 62.7954C182.343 62.8064 182.302 62.8064 182.264 62.7954C182.235 62.787 182.209 62.7727 182.186 62.7533C182.163 62.7339 182.144 62.71 182.131 62.6829C182.119 62.6559 182.112 62.6265 182.111 62.5965C182.11 62.5666 182.116 62.5368 182.127 62.5092L182.183 62.3734C182.197 62.3418 182.202 62.3073 182.199 62.2732C182.196 62.2389 182.184 62.206 182.166 62.1772L182.086 62.0542C182.064 62.0206 182.053 61.9818 182.052 61.9421C182.051 61.9026 182.061 61.8638 182.082 61.83C182.102 61.796 182.131 61.7684 182.166 61.7502C182.202 61.7317 182.241 61.7238 182.281 61.7273L182.427 61.7383C182.461 61.7408 182.495 61.735 182.527 61.7214C182.558 61.7078 182.586 61.6868 182.608 61.6602L182.7 61.5464C182.725 61.5146 182.758 61.4904 182.796 61.4769C182.834 61.4633 182.875 61.4609 182.914 61.47C182.954 61.4786 182.99 61.4988 183.018 61.5279C183.047 61.557 183.066 61.5939 183.073 61.6339V61.6339Z" fill="#F2FAFD"/>
<path d="M204.004 66.5658L204.674 67.9149C204.695 67.9581 204.698 68.0078 204.682 68.053C204.666 68.0982 204.633 68.1353 204.59 68.156C204.568 68.1664 204.545 68.1728 204.522 68.1747C204.498 68.1762 204.474 68.173 204.452 68.1654C204.43 68.158 204.409 68.1461 204.391 68.1305C204.373 68.1151 204.358 68.0964 204.348 68.0754L203.678 66.7271C203.668 66.7055 203.662 66.6822 203.66 66.6583C203.659 66.6344 203.663 66.6105 203.671 66.5879C203.679 66.5657 203.691 66.5453 203.706 66.5276C203.722 66.5099 203.742 66.4955 203.763 66.4851C203.784 66.4747 203.807 66.4683 203.831 66.4664C203.855 66.4652 203.878 66.4684 203.901 66.4758C203.923 66.4827 203.944 66.4943 203.962 66.5098C203.979 66.5255 203.994 66.5445 204.004 66.5658V66.5658Z" fill="#5EB2E3"/>
<path d="M204.004 66.566L204.518 67.601C204.528 67.6223 204.535 67.6453 204.536 67.6689C204.538 67.6928 204.534 67.7169 204.526 67.7394C204.519 67.7622 204.507 67.783 204.49 67.8005C204.475 67.8185 204.455 67.8329 204.433 67.8429C204.412 67.8531 204.389 67.8592 204.365 67.8608C204.341 67.8616 204.317 67.8582 204.294 67.8506C204.272 67.8424 204.251 67.8303 204.233 67.8149C204.216 67.7986 204.201 67.7794 204.191 67.758L203.682 66.7239C203.671 66.7023 203.665 66.679 203.664 66.6552C203.663 66.6312 203.666 66.6074 203.674 66.5847C203.682 66.5627 203.694 66.5423 203.71 66.5244C203.726 66.5067 203.745 66.4923 203.767 66.482C203.788 66.4715 203.811 66.4652 203.834 66.4633C203.858 66.4621 203.882 66.4653 203.904 66.4726C203.927 66.48 203.948 66.4921 203.966 66.5083C203.984 66.5245 203.998 66.5441 204.008 66.566H204.004Z" fill="#A7D7F4"/>
</g>
</g>
<path fill-rule="evenodd" clip-rule="evenodd" d="M177.502 44.1374C177.171 47.112 174.649 49.4253 171.587 49.4253C168.299 49.4253 165.634 46.7602 165.634 43.4728C165.634 40.2406 168.211 37.6104 171.422 37.5228V44.1371H177.502V44.1374Z" fill="#006BC2"/>
<path fill-rule="evenodd" clip-rule="evenodd" d="M172.281 36.8936C175.568 36.8936 178.234 39.5587 178.234 42.846C178.234 43.071 178.22 43.2926 178.196 43.5108H172.116V36.8962L172.281 36.8936Z" fill="#4BD8FB"/>
<path d="M164.103 50.9935V50.994H164.102V50.9935H164.103Z" fill="black"/>
<path d="M164.104 50.9935V50.994H164.103C164.103 50.9938 164.103 50.9935 164.104 50.9935Z" fill="black"/>
<path d="M164.104 50.9935V50.994H164.104V50.9935H164.104Z" fill="black"/>
<path d="M164.104 50.9935V50.994H164.104V50.9935H164.104Z" fill="black"/>
<path d="M164.105 50.9935V50.994H164.104V50.9935H164.105ZM164.105 50.994V50.9935H164.104V50.994H164.105Z" fill="black"/>
<path d="M164.106 50.994V50.9935H164.105V50.994H164.106ZM164.105 50.9935H164.106V50.994H164.105V50.9935Z" fill="black"/>
<path d="M164.106 50.9935L164.106 50.994H164.106V50.9935Z" fill="black"/>
<path d="M164.107 50.9935V50.994H164.107V50.9935H164.107Z" fill="black"/>
<path d="M164.107 50.9935L164.108 50.994H164.107V50.9935Z" fill="black"/>
<path d="M164.108 50.9935V50.994H164.107C164.107 50.9938 164.108 50.9935 164.108 50.9935Z" fill="black"/>
<path d="M164.108 50.994V50.9935H164.109V50.994H164.108ZM164.109 50.9935H164.108V50.994H164.109V50.9935Z" fill="black"/>
<path d="M164.11 50.9935V50.994H164.109V50.9935H164.11Z" fill="black"/>
<path d="M164.11 50.9935V50.994H164.11C164.11 50.9938 164.11 50.9935 164.11 50.9935Z" fill="black"/>
<path d="M164.111 50.9935V50.994H164.111V50.9935H164.111Z" fill="black"/>
<path d="M164.111 50.9935V50.994H164.111V50.9935H164.111ZM164.111 50.994V50.9935H164.111V50.994H164.111Z" fill="black"/>
<path d="M164.112 50.9935L164.112 50.994H164.112V50.9935Z" fill="black"/>
<path d="M164.102 50.9945V50.995H164.101V50.9945H164.102Z" fill="black"/>
<path d="M164.103 50.9945H164.102V50.995H164.103V50.9945ZM164.103 50.9945V50.995H164.102V50.9945H164.103Z" fill="black"/>
<path d="M164.103 50.9945H164.104V50.995H164.103V50.9945Z" fill="black"/>
<path d="M164.104 50.9945V50.995H164.104V50.9945H164.104Z" fill="black"/>
<path d="M164.105 50.9945V50.995H164.105V50.9945H164.105Z" fill="black"/>
<path d="M164.106 50.9945H164.106V50.995L164.106 50.9945Z" fill="black"/>
<path d="M164.107 50.9945H164.106V50.995H164.107V50.9945ZM164.107 50.9945V50.995H164.106V50.9945H164.107Z" fill="black"/>
<path d="M164.108 50.9945H164.109V50.995H164.108V50.9945Z" fill="black"/>
<path d="M164.11 50.9945H164.109V50.995H164.11V50.9945ZM164.11 50.9945V50.995H164.109V50.9945H164.11Z" fill="black"/>
<path d="M164.11 50.9945V50.995H164.11V50.9945H164.11Z" fill="black"/>
<path d="M164.111 50.9945V50.995H164.111V50.9945H164.111Z" fill="black"/>
<g clip-path="url(#clip2_2997_41202)">
<path d="M252.376 14.6709L248.681 10.2246C248.661 10.1948 248.631 10.1728 248.596 10.1622C248.562 10.1515 248.525 10.1529 248.491 10.1659C248.458 10.179 248.429 10.2031 248.411 10.2342C248.393 10.2653 248.386 10.3017 248.391 10.3375L248.946 14.3173C248.95 14.3481 248.963 14.3769 248.984 14.4003C249.004 14.4237 249.031 14.4407 249.06 14.4492C249.202 14.4887 249.326 14.5759 249.412 14.6962C249.497 14.8164 249.538 14.9623 249.528 15.1093C249.518 15.2563 249.458 15.3954 249.358 15.5033C249.257 15.6112 249.123 15.6812 248.977 15.7016C248.831 15.7219 248.683 15.6914 248.557 15.6151C248.431 15.5388 248.335 15.4214 248.285 15.2827C248.235 15.144 248.235 14.9924 248.284 14.8534C248.333 14.7145 248.429 14.5967 248.554 14.5198C248.581 14.5035 248.602 14.4798 248.615 14.4517C248.628 14.4236 248.633 14.3923 248.628 14.3616L248.073 10.3818C248.068 10.346 248.051 10.313 248.025 10.288C247.999 10.2631 247.965 10.2477 247.929 10.2443C247.893 10.241 247.857 10.2498 247.827 10.2695C247.797 10.2892 247.774 10.3185 247.763 10.3527C247.751 10.3869 245.426 15.6404 245.426 15.6404C245.418 15.664 245.416 15.6891 245.419 15.7138C245.423 15.7384 245.432 15.7619 245.446 15.7824L247.273 18.4399C247.29 18.4644 247.313 18.4837 247.34 18.4957C247.368 18.5077 247.398 18.5119 247.427 18.5078L251.236 17.9764C251.265 17.9723 251.293 17.9601 251.316 17.9411C251.339 17.9221 251.356 17.8971 251.366 17.8689L252.396 14.8129C252.404 14.7893 252.406 14.7642 252.402 14.7396C252.399 14.7149 252.39 14.6914 252.376 14.6709Z" fill="#4BD8FB"/>
<path d="M249.54 8.15594L252.517 7.74058C252.562 7.73433 252.603 7.71571 252.632 7.68882C252.66 7.66193 252.674 7.62897 252.669 7.5972C252.665 7.56542 252.643 7.53743 252.608 7.51938C252.573 7.50134 252.529 7.49471 252.484 7.50096L248.091 8.11376C248.046 8.12001 248.005 8.13863 247.977 8.16552C247.948 8.19241 247.935 8.22536 247.939 8.25714C247.939 8.25872 247.941 8.25987 247.941 8.26143L247.94 8.26277C247.941 8.27873 247.945 8.2942 247.954 8.30832C247.962 8.32244 247.975 8.33492 247.991 8.34504C248.007 8.35517 248.026 8.36275 248.046 8.36734C248.067 8.37193 248.089 8.37345 248.111 8.37181C249.423 8.27284 250.692 8.5299 251.667 9.0921C252.641 9.65429 253.25 10.4806 253.373 11.4075C253.378 11.4393 253.4 11.4673 253.435 11.4853C253.469 11.5034 253.514 11.51 253.559 11.5037C253.604 11.4975 253.645 11.4789 253.673 11.452C253.702 11.4251 253.716 11.3921 253.711 11.3604C253.603 10.549 253.145 9.80568 252.398 9.23206C251.651 8.65843 250.653 8.28258 249.54 8.15594Z" fill="#006BC2"/>
<path d="M247.753 8.16108L243.36 8.77388C243.316 8.78013 243.274 8.79875 243.246 8.82564C243.217 8.85252 243.204 8.88548 243.208 8.91726C243.213 8.94903 243.235 8.97702 243.269 8.99507C243.304 9.01312 243.349 9.01975 243.394 9.0135L246.371 8.59813C245.335 9.02457 244.478 9.65927 243.917 10.4154C243.356 11.1714 243.118 12.012 243.236 12.8218C243.241 12.8536 243.263 12.8816 243.298 12.8996C243.332 12.9177 243.377 12.9243 243.422 12.9181C243.467 12.9118 243.508 12.8932 243.536 12.8663C243.565 12.8394 243.579 12.8065 243.574 12.7747C243.439 11.8496 243.798 10.8881 244.582 10.0807C245.365 9.27323 246.515 8.6787 247.804 8.41478C247.826 8.41026 247.847 8.40274 247.866 8.39267C247.884 8.3826 247.9 8.37017 247.913 8.35609C247.925 8.34201 247.934 8.32655 247.938 8.31061C247.943 8.29466 247.943 8.27854 247.939 8.26316L247.938 8.26198C247.938 8.26038 247.939 8.2589 247.939 8.25732C247.934 8.22554 247.912 8.19755 247.877 8.1795C247.843 8.16146 247.798 8.15483 247.753 8.16108Z" fill="#006BC2"/>
<path d="M251.642 18.567L247.198 19.187C247.11 19.1992 247.049 19.2802 247.062 19.3678L247.283 20.9549C247.295 21.0425 247.376 21.1037 247.464 21.0915L251.908 20.4715C251.995 20.4593 252.056 20.3783 252.044 20.2907L251.823 18.7036C251.811 18.6159 251.73 18.5548 251.642 18.567Z" fill="#006BC2"/>
<path d="M251.985 17.5482L246.589 18.301C246.501 18.3132 246.44 18.3942 246.452 18.4818L246.585 19.4341C246.598 19.5217 246.678 19.5829 246.766 19.5706L252.162 18.8178C252.25 18.8056 252.311 18.7246 252.299 18.637L252.166 17.6847C252.154 17.5971 252.073 17.536 251.985 17.5482Z" fill="#006BC2"/>
<path d="M248.299 7.65334L247.426 7.77511C247.346 7.78632 247.29 7.86054 247.301 7.94089L247.423 8.81378C247.434 8.89413 247.509 8.95018 247.589 8.93897L248.462 8.81719C248.542 8.80598 248.598 8.73176 248.587 8.65141L248.465 7.77852C248.454 7.69818 248.38 7.64213 248.299 7.65334Z" fill="#006BC2"/>
<path d="M243.836 12.7525L242.963 12.8742C242.883 12.8854 242.827 12.9597 242.838 13.04L242.96 13.9129C242.971 13.9933 243.045 14.0493 243.126 14.0381L243.998 13.9163C244.079 13.9051 244.135 13.8309 244.124 13.7505L244.002 12.8776C243.991 12.7973 243.916 12.7413 243.836 12.7525Z" fill="#006BC2"/>
<path d="M254.056 11.3269L253.183 11.4487C253.102 11.4599 253.046 11.5341 253.058 11.6145L253.179 12.4874C253.191 12.5677 253.265 12.6238 253.345 12.6126L254.218 12.4908C254.298 12.4796 254.354 12.4053 254.343 12.325L254.222 11.4521C254.21 11.3718 254.136 11.3157 254.056 11.3269Z" fill="#006BC2"/>
<path d="M253.118 8.27558C253.469 8.22666 253.713 7.90279 253.664 7.55218C253.615 7.20158 253.291 6.95701 252.941 7.00592C252.59 7.05483 252.346 7.37871 252.395 7.72931C252.444 8.07992 252.767 8.32449 253.118 8.27558Z" fill="#006BC2"/>
<path d="M242.961 9.69269C243.312 9.64378 243.556 9.3199 243.507 8.9693C243.458 8.61869 243.134 8.37412 242.784 8.42303C242.433 8.47195 242.189 8.79582 242.238 9.14643C242.287 9.49703 242.61 9.7416 242.961 9.69269Z" fill="#006BC2"/>
</g>
<g clip-path="url(#clip3_2997_41202)">
<path d="M273.153 34.6261V36.4908H259.992V34.6261C259.992 33.917 260.567 33.342 261.276 33.342H271.869C272.578 33.342 273.153 33.917 273.153 34.6261Z" fill="#4BD8FB"/>
<path d="M265.793 34.4495C266.062 34.4503 266.279 34.6688 266.278 34.9374C266.277 35.206 266.059 35.423 265.79 35.4221C265.521 35.4213 265.305 35.2028 265.305 34.9342C265.306 34.6656 265.525 34.4487 265.793 34.4495Z" fill="white"/>
<path d="M273.153 36.4908V43.6169C273.153 44.3261 272.578 44.9009 271.869 44.9009H261.276C260.567 44.9009 259.992 44.3261 259.992 43.6169V36.4908H273.153Z" fill="#006BC2"/>
<path d="M263.608 34.4426C263.877 34.4435 264.094 34.6619 264.093 34.9305C264.092 35.1991 263.874 35.4162 263.605 35.4153C263.337 35.4144 263.12 35.196 263.12 34.9274C263.121 34.7984 263.173 34.6747 263.264 34.5838C263.355 34.4929 263.479 34.4421 263.608 34.4426Z" fill="white"/>
<path d="M261.423 34.4357C261.692 34.4364 261.909 34.6549 261.908 34.9236C261.908 35.1923 261.689 35.4095 261.42 35.4086C261.152 35.4079 260.935 35.1894 260.935 34.9207C260.936 34.7917 260.987 34.668 261.079 34.577C261.17 34.4861 261.294 34.4352 261.423 34.4357Z" fill="white"/>
<path d="M265.137 41.8529C265.083 41.8531 265.032 41.834 264.991 41.7994L263.537 40.5612C263.487 40.5185 263.458 40.4559 263.458 40.3901C263.458 40.3243 263.487 40.2617 263.537 40.219L264.991 38.9809C265.086 38.9004 265.227 38.9118 265.308 39.0062C265.388 39.1008 265.377 39.2426 265.282 39.3231L264.03 40.3901L265.283 41.4572C265.354 41.5183 265.38 41.6176 265.348 41.706C265.315 41.7944 265.231 41.8531 265.137 41.8529H265.137Z" fill="white"/>
<path d="M268.007 41.8529C267.913 41.8531 267.829 41.7944 267.796 41.706C267.764 41.6176 267.79 41.5183 267.862 41.4572L269.114 40.3901L267.861 39.3231C267.767 39.2426 267.756 39.1008 267.836 39.0062C267.917 38.9118 268.058 38.9004 268.153 38.9809L269.607 40.219C269.657 40.2617 269.686 40.3243 269.686 40.3901C269.686 40.4559 269.657 40.5185 269.607 40.5612L268.153 41.7994C268.112 41.834 268.061 41.8529 268.007 41.8529Z" fill="white"/>
<path d="M266.057 42.7817C265.99 42.7817 265.925 42.7511 265.883 42.6986C265.84 42.6459 265.823 42.577 265.837 42.5106L266.743 38.2078C266.769 38.0863 266.888 38.0087 267.01 38.0343C267.131 38.0599 267.209 38.179 267.183 38.3005L266.277 42.6033C266.255 42.7071 266.163 42.7816 266.057 42.7817Z" fill="white"/>
</g>
<g clip-path="url(#clip4_2997_41202)">
<path d="M201.324 23.1094H195.977C195.766 23.1094 195.595 22.9383 195.595 22.7275C195.595 22.5167 195.595 15.3 195.595 15.0892C195.595 14.8784 195.766 14.7073 195.977 14.7073H201.324C201.534 14.7073 201.705 14.8784 201.705 15.0892V22.7275C201.705 22.9383 201.534 23.1094 201.324 23.1094Z" fill="#4BD8FB"/>
<path d="M197.504 16.9987H195.977C195.766 16.9987 195.595 16.8276 195.595 16.6168C195.595 16.406 195.766 16.2349 195.977 16.2349H197.504C197.715 16.2349 197.886 16.406 197.886 16.6168C197.886 16.8276 197.715 16.9987 197.504 16.9987Z" fill="white"/>
<path d="M197.504 18.5264H195.977C195.766 18.5264 195.595 18.3553 195.595 18.1445C195.595 17.9337 195.766 17.7626 195.977 17.7626H197.504C197.715 17.7626 197.886 17.9337 197.886 18.1445C197.886 18.3553 197.715 18.5264 197.504 18.5264Z" fill="white"/>
<path d="M197.504 20.054H195.977C195.766 20.054 195.595 19.8829 195.595 19.6721C195.595 19.4613 195.766 19.2902 195.977 19.2902H197.504C197.715 19.2902 197.886 19.4613 197.886 19.6721C197.886 19.8829 197.715 20.054 197.504 20.054Z" fill="white"/>
<path d="M197.504 21.5816H195.977C195.766 21.5816 195.595 21.4105 195.595 21.1997C195.595 20.9888 195.766 20.8177 195.977 20.8177H197.504C197.715 20.8177 197.886 20.9888 197.886 21.1997C197.886 21.4105 197.715 21.5816 197.504 21.5816Z" fill="white"/>
<path d="M199.796 16.9986H199.032C198.821 16.9986 198.65 16.8275 198.65 16.6167C198.65 16.4058 198.821 16.2347 199.032 16.2347H199.796C200.007 16.2347 200.178 16.4058 200.178 16.6167C200.178 16.8275 200.007 16.9986 199.796 16.9986Z" fill="white"/>
<path d="M199.796 18.5264H199.032C198.821 18.5264 198.65 18.3553 198.65 18.1445C198.65 17.9337 198.821 17.7626 199.032 17.7626H199.796C200.007 17.7626 200.178 17.9337 200.178 18.1445C200.178 18.3553 200.007 18.5264 199.796 18.5264Z" fill="white"/>
<path d="M199.796 20.054H199.032C198.821 20.054 198.65 19.8829 198.65 19.6721C198.65 19.4613 198.821 19.2902 199.032 19.2902H199.796C200.007 19.2902 200.178 19.4613 200.178 19.6721C200.178 19.8829 200.007 20.054 199.796 20.054Z" fill="white"/>
<path d="M199.796 21.5816H199.032C198.821 21.5816 198.65 21.4105 198.65 21.1997C198.65 20.9888 198.821 20.8177 199.032 20.8177H199.796C200.007 20.8177 200.178 20.9888 200.178 21.1997C200.178 21.4105 200.007 21.5816 199.796 21.5816Z" fill="white"/>
<path d="M196.22 13.2676C196.133 13.195 196.016 13.1637 195.906 13.1866L189.796 14.3323C189.615 14.3659 189.484 14.5233 189.484 14.7074V23.1095C189.484 23.2928 189.615 23.451 189.796 23.4846L195.906 24.6303C195.929 24.6349 195.953 24.6372 195.977 24.6372C196.065 24.6372 196.152 24.6066 196.22 24.5493C196.308 24.4768 196.359 24.3683 196.359 24.2553V13.5616C196.359 13.4478 196.308 13.3401 196.22 13.2676Z" fill="#006BC2"/>
<path d="M194.737 20.1848L193.529 18.8046L194.75 17.2341C194.88 17.0676 194.85 16.8278 194.684 16.6979C194.518 16.5681 194.278 16.5986 194.148 16.7644L193.016 18.2187L192.063 17.1295C191.923 16.9691 191.682 16.9546 191.525 17.0936C191.366 17.2326 191.35 17.474 191.489 17.6321L192.539 18.8328L191.474 20.2016C191.344 20.3681 191.375 20.608 191.541 20.7378C191.611 20.792 191.694 20.818 191.776 20.818C191.89 20.818 192.002 20.7676 192.078 20.6706L193.052 19.4179L194.162 20.6866C194.238 20.7737 194.343 20.818 194.449 20.818C194.539 20.818 194.628 20.7867 194.701 20.7233C194.86 20.5843 194.876 20.3429 194.737 20.1848Z" fill="#FAFAFA"/>
</g>
</g>
<defs>
<clipPath id="clip0_2997_41202">
<rect width="144" height="113" fill="white" transform="translate(144 7)"/>
</clipPath>
<clipPath id="clip1_2997_41202">
<rect width="127.522" height="115.471" fill="white" transform="translate(150 22.5302)"/>
</clipPath>
<clipPath id="clip2_2997_41202">
<rect width="14.1015" height="14.1015" fill="white" transform="translate(240.777 7.94836) rotate(-7.942)"/>
</clipPath>
<clipPath id="clip3_2997_41202">
<rect width="13.1614" height="13.1614" fill="white" transform="translate(259.992 32.5392)"/>
</clipPath>
<clipPath id="clip4_2997_41202">
<rect width="12.2213" height="12.2213" fill="white" transform="translate(189.484 12.7975)"/>
</clipPath>
</defs>
</svg>
